<svg width="34" height="32" viewBox="0 0 34 32" fill="none" xmlns="http://www.w3.org/2000/svg">
<g clip-path="url(#clip0_938_1022)">
<path d="M13.3497 31.2549H4.08717C3.64814 31.2559 3.21317 31.1703 2.80737 31.0029C2.40157 30.8355 2.03283 30.5896 1.72239 30.2795C1.41194 29.9693 1.16601 29.601 0.998458 29.1956C0.830901 28.7902 0.745119 28.3557 0.746102 27.9171V4.07542C0.746102 3.19215 1.09739 2.34505 1.72257 1.72048C2.34774 1.09591 3.19557 0.745056 4.07971 0.745056H22.6124C23.0508 0.745055 23.4848 0.831425 23.8898 0.999258C24.2947 1.16709 24.6626 1.41307 24.9722 1.72312C25.2819 2.03316 25.5272 2.40122 25.6943 2.80614C25.8614 3.21106 25.9469 3.6449 25.946 4.08288V11.2503" stroke="#565555" stroke-width="2" stroke-miterlimit="10" stroke-linecap="round"/>
<path d="M19.1509 1.18463V3.88172C19.1509 4.22554 19.0142 4.55527 18.7709 4.79839C18.5275 5.04151 18.1974 5.1781 17.8532 5.1781H8.84417C8.67314 5.17908 8.50359 5.14631 8.34529 5.0816C8.18699 5.01689 8.04307 4.92151 7.92178 4.80103C7.80049 4.68055 7.70434 4.53734 7.63866 4.37957C7.57298 4.2218 7.53906 4.05259 7.53906 3.88172V1.18463" stroke="#565555" stroke-width="2" stroke-miterlimit="10" stroke-linecap="round"/>
<path d="M32.1797 13.5674C31.8673 13.2919 31.5037 13.0808 31.1093 12.9462C30.715 12.8117 30.2978 12.7563 29.882 12.7833C29.4661 12.8103 29.0599 12.9191 28.6863 13.1036C28.3127 13.288 27.9791 13.5444 27.7051 13.858L26.6237 15.0948L19.4047 23.2904L18.4874 24.3409L17.8086 29.899L23.2379 28.5132L31.3744 19.2447L31.5011 19.0957L32.0306 18.4922L32.4632 18.0079C33.0119 17.3801 33.2899 16.5611 33.2369 15.7294C33.1838 14.8976 32.8038 14.1206 32.1797 13.5674V13.5674Z" stroke="#EF7A31" stroke-width="2" stroke-miterlimit="10"/>
<path d="M16.7344 31.1432L18.2408 29.437" stroke="#EF7A31" stroke-width="2" stroke-miterlimit="10" stroke-linecap="round"/>
<path d="M5.91406 12.2263H9.49379" stroke="#565555" stroke-width="2" stroke-miterlimit="10" stroke-linecap="round"/>
<path d="M5.91406 17.166H17.8167" stroke="#565555" stroke-width="2" stroke-miterlimit="10" stroke-linecap="round"/>
</g>
<defs>
<clipPath id="clip0_938_1022">
<rect width="34" height="32" fill="white"/>
</clipPath>
</defs>
</svg>
