<svg width="33" height="32" viewBox="0 0 33 32" fill="none" xmlns="http://www.w3.org/2000/svg">
<g clip-path="url(#clip0_938_946)">
<path d="M17.2105 31.2549H4.12036C3.227 31.2549 2.37013 30.9033 1.73843 30.2773C1.10673 29.6513 0.751953 28.8023 0.751953 27.9171V4.07542C0.753944 3.19146 1.1097 2.34438 1.74118 1.72003C2.37267 1.09567 3.2283 0.745054 4.12036 0.745056H22.7971C23.2391 0.745055 23.6768 0.831425 24.085 0.999258C24.4933 1.16709 24.8641 1.41307 25.1763 1.72312C25.4885 2.03316 25.7359 2.40122 25.9043 2.80614C26.0728 3.21106 26.159 3.6449 26.158 4.08288V17.8068" stroke="#565555" stroke-width="2" stroke-miterlimit="10" stroke-linecap="round"/>
<path d="M19.3377 1.18463V3.88172C19.3377 4.22554 19.1999 4.55527 18.9546 4.79839C18.7092 5.04151 18.3764 5.1781 18.0294 5.1781H8.94665C8.77421 5.17908 8.60328 5.14631 8.44368 5.0816C8.28409 5.01689 8.13899 4.92151 8.01671 4.80103C7.89443 4.68055 7.79749 4.53734 7.73127 4.37957C7.66505 4.2218 7.63086 4.05259 7.63086 3.88172V1.18463" stroke="#565555" stroke-width="2" stroke-miterlimit="10" stroke-linecap="round"/>
<path d="M5.96289 12.2263H9.57191" stroke="#565555" stroke-width="2" stroke-miterlimit="10" stroke-linecap="round"/>
<path d="M5.96289 17.166H17.9629" stroke="#565555" stroke-width="2" stroke-miterlimit="10" stroke-linecap="round"/>
<path d="M19.752 26.5388L22.4436 30.4503C22.5393 30.6028 22.6737 30.728 22.8331 30.8136C22.9925 30.8992 23.1715 30.9423 23.3528 30.9385C23.534 30.9348 23.7113 30.8843 23.8669 30.7922C24.0226 30.7 24.1514 30.5694 24.2407 30.413L32.2481 18.9541" stroke="#EF7A31" stroke-width="2" stroke-miterlimit="10" stroke-linecap="round"/>
</g>
<defs>
<clipPath id="clip0_938_946">
<rect width="33" height="32" fill="white"/>
</clipPath>
</defs>
</svg>
