<svg width="36" height="31" viewBox="0 0 36 31" fill="none" xmlns="http://www.w3.org/2000/svg">
<g clip-path="url(#clip0_938_1029)">
<path d="M6.86509 21.1402H3.70164C2.92347 21.1402 2.17704 20.8401 1.62679 20.3058C1.07654 19.7715 0.767578 19.0469 0.767578 18.2913V8.96132C0.767578 8.20575 1.07654 7.48118 1.62679 6.94691C2.17704 6.41264 2.92347 6.11246 3.70164 6.11246H32.2516C33.0298 6.11246 33.7762 6.41264 34.3265 6.94691C34.8767 7.48118 35.1859 8.20575 35.1859 8.96132V18.2913C35.1859 19.0469 34.8767 19.7715 34.3265 20.3058C33.7762 20.8401 33.0298 21.1402 32.2516 21.1402H29.6182" stroke="#565555" stroke-width="2" stroke-miterlimit="10" stroke-linecap="round"/>
<path d="M7.24444 15.6958H28.7559V27.6443C28.7612 27.9849 28.6961 28.3231 28.5646 28.6389C28.433 28.9547 28.2376 29.2417 27.9899 29.4829C27.7422 29.7241 27.4472 29.9147 27.1223 30.0434C26.7975 30.1721 26.4494 30.2362 26.0986 30.2321H9.8701C9.52194 30.2321 9.17725 30.1649 8.85608 30.0344C8.53492 29.9039 8.24369 29.7127 7.99935 29.4719C7.75502 29.231 7.56244 28.9454 7.43284 28.6317C7.30324 28.3179 7.2392 27.9823 7.24444 27.6443V15.6958Z" stroke="#565555" stroke-width="2" stroke-miterlimit="10" stroke-linecap="round"/>
<path d="M9.26875 0.767883H26.7389C27.2758 0.767883 27.7908 0.974996 28.1705 1.34366C28.5502 1.71232 28.7635 2.21233 28.7635 2.7337V6.14316H7.24414V2.7337C7.24414 2.21233 7.45745 1.71232 7.83713 1.34366C8.21682 0.974996 8.73179 0.767883 9.26875 0.767883V0.767883Z" stroke="#565555" stroke-width="2" stroke-miterlimit="10" stroke-linecap="round"/>
<path d="M12.0918 20.6104H23.7016" stroke="#EF7A31" stroke-width="2" stroke-miterlimit="10" stroke-linecap="round"/>
<path d="M12.0918 25.1256H17.8967" stroke="#EF7A31" stroke-width="2" stroke-miterlimit="10" stroke-linecap="round"/>
</g>
<defs>
<clipPath id="clip0_938_1029">
<rect width="36" height="31" fill="white"/>
</clipPath>
</defs>
</svg>
